<?xml version="1.0" encoding="UTF-8"?>
<svg xmlns="http://www.w3.org/2000/svg" xmlns:xlink="http://www.w3.org/1999/xlink" width="128px" height="128px" viewBox="0 0 128 128" version="1.1">
<g id="surface1">
<path style="fill:none;stroke-width:2;stroke-linecap:round;stroke-linejoin:round;stroke:rgb(16.078431%,16.078431%,16.078431%);stroke-opacity:1;stroke-miterlimit:4;" d="M 3 12 C 3 7.029053 7.029785 3 12 3 C 14.827148 3 17.350342 4.303711 18.999756 6.342773 " transform="matrix(5.333333,0,0,5.333333,0,0)"/>
<path style="fill:none;stroke-width:2;stroke-linecap:round;stroke-linejoin:round;stroke:rgb(16.078431%,16.078431%,16.078431%);stroke-opacity:1;stroke-miterlimit:4;" d="M 19.5 3 L 19.5 6.999756 L 15.500244 6.999756 " transform="matrix(5.333333,0,0,5.333333,0,0)"/>
<path style="fill:none;stroke-width:2;stroke-linecap:round;stroke-linejoin:round;stroke:rgb(16.078431%,16.078431%,16.078431%);stroke-opacity:1;stroke-miterlimit:4;" d="M 21 12 C 21 16.970215 16.970947 21 12 21 C 9.172852 21 6.649658 19.696289 5.000244 17.657227 " transform="matrix(5.333333,0,0,5.333333,0,0)"/>
<path style="fill:none;stroke-width:2;stroke-linecap:round;stroke-linejoin:round;stroke:rgb(16.078431%,16.078431%,16.078431%);stroke-opacity:1;stroke-miterlimit:4;" d="M 4.5 21 L 4.5 16.999512 L 8.499756 16.999512 " transform="matrix(5.333333,0,0,5.333333,0,0)"/>
</g>
</svg>
